<svg xmlns="http://www.w3.org/2000/svg" viewBox="0 0 400 200" fill="none">
  <defs>
    <symbol id="tools-illustration" viewBox="0 0 400 200">
      <!-- Background -->
      <rect width="400" height="200" fill="url(#toolsGradient)" opacity="0.05"/>
      
      <!-- Gradient definition -->
      <defs>
        <linearGradient id="toolsGradient" x1="0%" y1="0%" x2="100%" y2="100%">
          <stop offset="0%" style="stop-color:#0f6769;stop-opacity:1" />
          <stop offset="100%" style="stop-color:#f39c12;stop-opacity:1" />
        </linearGradient>
      </defs>
      
      <!-- Wrench -->
      <g transform="translate(50, 80)">
        <path d="M0 0 L20 0 L25 5 L20 10 L0 10 Z" fill="currentColor" opacity="0.7"/>
        <circle cx="12.5" cy="5" r="3" fill="none" stroke="currentColor" stroke-width="1" opacity="0.5"/>
      </g>
      
      <!-- Screwdriver -->
      <g transform="translate(100, 70)">
        <rect x="0" y="0" width="4" height="30" fill="currentColor" opacity="0.6"/>
        <rect x="-2" y="0" width="8" height="8" fill="currentColor" opacity="0.8"/>
        <rect x="-1" y="30" width="6" height="15" fill="currentColor" opacity="0.4"/>
      </g>
      
      <!-- Hammer -->
      <g transform="translate(150, 60)">
        <rect x="0" y="0" width="6" height="25" fill="currentColor" opacity="0.6"/>
        <rect x="-5" y="0" width="16" height="8" fill="currentColor" opacity="0.7"/>
        <rect x="-2" y="25" width="10" height="20" fill="currentColor" opacity="0.5"/>
      </g>
      
      <!-- Pliers -->
      <g transform="translate(200, 75)">
        <path d="M0 0 Q10 5 0 10 Q-5 5 0 0" fill="currentColor" opacity="0.6"/>
        <path d="M0 0 Q-10 5 0 10 Q5 5 0 0" fill="currentColor" opacity="0.6"/>
        <rect x="-1" y="5" width="2" height="10" fill="currentColor" opacity="0.4"/>
      </g>
      
      <!-- Sandpaper -->
      <g transform="translate(250, 80)">
        <rect x="0" y="0" width="30" height="20" fill="currentColor" opacity="0.5"/>
        <rect x="2" y="2" width="26" height="16" fill="currentColor" opacity="0.3"/>
        <circle cx="15" cy="10" r="2" fill="currentColor" opacity="0.2"/>
      </g>
      
      <!-- Paint brush -->
      <g transform="translate(300, 70)">
        <rect x="0" y="0" width="3" height="25" fill="currentColor" opacity="0.6"/>
        <rect x="-2" y="0" width="7" height="8" fill="currentColor" opacity="0.7"/>
        <rect x="-1" y="25" width="5" height="15" fill="currentColor" opacity="0.4"/>
      </g>
      
      <!-- Gear/cog -->
      <g transform="translate(80, 120)">
        <circle cx="0" cy="0" r="15" fill="currentColor" opacity="0.3"/>
        <circle cx="0" cy="0" r="8" fill="currentColor" opacity="0.5"/>
        <rect x="-1" y="-15" width="2" height="30" fill="currentColor" opacity="0.4"/>
        <rect x="-15" y="-1" width="30" height="2" fill="currentColor" opacity="0.4"/>
      </g>
      
      <!-- Nuts and bolts -->
      <g transform="translate(120, 130)">
        <circle cx="0" cy="0" r="4" fill="currentColor" opacity="0.4"/>
        <circle cx="0" cy="0" r="2" fill="currentColor" opacity="0.6"/>
      </g>
      
      <g transform="translate(140, 135)">
        <rect x="-3" y="-3" width="6" height="6" fill="currentColor" opacity="0.4"/>
        <rect x="-1" y="-1" width="2" height="2" fill="currentColor" opacity="0.6"/>
      </g>
      
      <!-- Decorative sparks -->
      <g transform="translate(180, 50)">
        <path d="M0 0 L5 5 M0 5 L5 0" stroke="currentColor" stroke-width="1" opacity="0.3"/>
      </g>
      
      <g transform="translate(220, 40)">
        <path d="M0 0 L4 4 M0 4 L4 0" stroke="currentColor" stroke-width="1" opacity="0.2"/>
      </g>
      
      <g transform="translate(320, 50)">
        <path d="M0 0 L6 6 M0 6 L6 0" stroke="currentColor" stroke-width="1" opacity="0.3"/>
      </g>
      
      <!-- Tool box outline -->
      <rect x="20" y="150" width="60" height="30" fill="none" stroke="currentColor" stroke-width="2" opacity="0.3"/>
      <rect x="25" y="155" width="50" height="20" fill="currentColor" opacity="0.1"/>
      <rect x="45" y="150" width="10" height="5" fill="currentColor" opacity="0.4"/>
    </symbol>
  </defs>
  <use href="#tools-illustration"/>
</svg>
